M48
METRIC,LZ,000.000
;FILE_FORMAT=3:3
;TYPE=PLATED
;Layer: PTH_Through
;EasyEDA v6.5.51, 2025-10-19 10:48:53
;5e3b94fd083e48a5883d67b6d006c6ac,63b151a7cfd24dbfbc8a16c83e39e105,10
;Gerber Generator version 0.2
;Holesize 1 = 0.305 mm
T01C0.305
;Holesize 2 = 0.701 mm
T02C0.701
;Holesize 3 = 0.800 mm
T03C0.800
;Holesize 4 = 0.900 mm
T04C0.900
;Holesize 5 = 0.901 mm
T05C0.901
;Holesize 6 = 0.915 mm
T06C0.915
;Holesize 7 = 1.000 mm
T07C1.000
;Holesize 8 = 1.101 mm
T08C1.101
%
G05
G90
T01
X022425Y065591
X030446Y061620
X037948Y061481
T02
X053995Y036223
X058019Y038453
X013970Y061936
X013970Y056856
X013970Y059396
T03
X037227Y075819
X039227Y075819
T04
X060611Y042389
X062325Y049813
X009746Y050052
X011590Y042658
T05
X054544Y062925
X054588Y060385
X054633Y057846
X054677Y055306
X062163Y063058
X062207Y060518
X062252Y057979
X062296Y055439
T06
X050865Y041921
X048449Y041137
X025539Y040182
X028055Y039828
X039492Y039608
X036962Y039386
X023307Y059307
X023175Y056771
X055230Y045613
X053228Y044049
X045296Y040080
X042842Y039422
X048238Y059182
X048282Y056642
X020480Y043085
X022954Y042513
X015543Y046197
X017985Y045497
X031496Y039624
X034036Y039624
T07
X032668Y047813
X032623Y050353
X032579Y052893
X032535Y055432
X032490Y057972
X032446Y060512
X032402Y063051
X032357Y065591
X039976Y065724
X040020Y063184
X040065Y060645
X040109Y058105
X040153Y055565
X040198Y053026
X040242Y050486
X040287Y047947
T08
X033401Y073152
X014946Y038204
X016804Y036472
M30
