G04 Layer: BottomLayer*
G04 EasyEDA v6.5.51, 2025-10-19 10:48:53*
G04 5e3b94fd083e48a5883d67b6d006c6ac,63b151a7cfd24dbfbc8a16c83e39e105,10*
G04 Gerber Generator version 0.2*
G04 Scale: 100 percent, Rotated: No, Reflected: No *
G04 Dimensions in millimeters *
G04 leading zeros omitted , absolute positions ,4 integer and 5 decimal *
%FSLAX45Y45*%
%MOMM*%

%AMMACRO1*21,1,$1,$2,0,0,$3*%
%ADD10C,0.2540*%
%ADD11C,1.3000*%
%ADD12C,1.4000*%
%ADD13R,1.7000X1.7000*%
%ADD14C,1.5240*%
%ADD15C,0.0106*%
%ADD16MACRO1,1.7X1.5748X-42.9996*%
%ADD17C,1.7000*%
%ADD18C,1.8796*%
%ADD19MACRO1,1.5X1.5001X-88.9987*%
%ADD20C,1.5000*%
%ADD21C,1.6000*%
%ADD22MACRO1,1.6X1.6X-178.9994*%
%ADD23C,0.6096*%

%LPD*%
D10*
X5522975Y4561281D02*
G01*
X5522975Y4715535D01*
X4031868Y6206642D01*
X3338677Y6206642D01*
X3240176Y6305143D01*
X4006494Y6064504D02*
G01*
X3878351Y6064504D01*
X3794759Y6148095D01*
X2047951Y4308475D02*
G01*
X2047951Y5165394D01*
X3044596Y6162039D01*
X4019804Y5302605D02*
G01*
X5086477Y4235932D01*
X5086477Y4192143D01*
X4015359Y5556580D02*
G01*
X3907383Y5448604D01*
X3907383Y4002608D01*
X3949217Y3960774D01*
X4028643Y4794681D02*
G01*
X4529581Y4293743D01*
X4529581Y4007967D01*
X1554327Y4619701D02*
G01*
X1554327Y5870930D01*
X2242515Y6559118D01*
X5458968Y6038595D02*
G01*
X5033772Y6463792D01*
X3938524Y6463792D01*
X3608324Y6793992D01*
X3722624Y7581900D01*
X3997706Y6572504D02*
G01*
X3808475Y6761734D01*
X3922775Y7581900D01*
X3253486Y5543270D02*
G01*
X3371748Y5425008D01*
X3371748Y5144744D01*
X3262350Y5035346D01*
X6232499Y4981346D02*
G01*
X5801868Y4550714D01*
X5801868Y3845305D01*
X1680387Y3647186D02*
G01*
X1874189Y3647186D01*
X3262350Y5035346D01*
X2317445Y5677077D02*
G01*
X1798472Y5158104D01*
X1798472Y4549698D01*
X6216294Y6305804D02*
G01*
X5467705Y5557215D01*
X5467705Y5530595D01*
X1397000Y6193612D02*
G01*
X1397000Y5939612D01*
X1397000Y5939612D02*
G01*
X1158976Y5701588D01*
X1158976Y4265828D01*
X3340100Y7315200D02*
G01*
X3302000Y6902450D01*
X3112008Y6712458D01*
X3112008Y5435092D01*
X3257804Y5289295D01*
X6229604Y5543905D02*
G01*
X5663514Y4977815D01*
X5663514Y3886276D01*
X5399531Y3622294D01*
X3149600Y3962400D02*
G01*
X3419602Y4232402D01*
X3419602Y5876213D01*
X3244621Y6051194D01*
D11*
G01*
X3722700Y7581900D03*
G01*
X3922699Y7581900D03*
D12*
G01*
X5399539Y3622296D03*
G01*
X5801860Y3845303D03*
D13*
G01*
X3340100Y7315200D03*
D14*
G01*
X5086484Y4192148D03*
G01*
X4844915Y4113651D03*
G01*
X2553936Y4018175D03*
G01*
X2805463Y3982824D03*
G01*
X3949214Y3960769D03*
G01*
X3696185Y3938630D03*
G01*
X2330747Y5930724D03*
G01*
X2317452Y5677075D03*
G01*
X5522978Y4561288D03*
G01*
X5322821Y4404911D03*
G01*
X4529571Y4007970D03*
G01*
X4284228Y3942229D03*
G01*
X4823782Y5918179D03*
G01*
X4828217Y5664220D03*
G01*
X2047956Y4308469D03*
G01*
X2295443Y4251330D03*
G01*
X1554319Y4619706D03*
G01*
X1798480Y4549693D03*
G01*
X3149600Y3962400D03*
G01*
X3403600Y3962400D03*
D16*
G01*
X1494618Y3820412D03*
D17*
G01*
X1680382Y3647186D03*
D18*
G01*
X6061092Y4238866D03*
G01*
X6232507Y4981333D03*
G01*
X974628Y5005184D03*
G01*
X1158971Y4265815D03*
D12*
G01*
X1397000Y6193612D03*
G01*
X1397002Y5685609D03*
G01*
X1396997Y5939612D03*
D19*
G01*
X5454406Y6292490D03*
D20*
G01*
X5458843Y6038532D03*
G01*
X5463275Y5784568D03*
G01*
X5467708Y5530603D03*
G01*
X6216291Y6305796D03*
G01*
X6220724Y6051831D03*
G01*
X6225156Y5797867D03*
G01*
X6229596Y5543908D03*
D21*
G01*
X3266772Y4781384D03*
G01*
X3262340Y5035346D03*
G01*
X3257908Y5289308D03*
G01*
X3253473Y5543270D03*
G01*
X3249040Y5797232D03*
G01*
X3244608Y6051191D03*
G01*
X3240176Y6305153D03*
G01*
X3235744Y6559115D03*
G01*
X3997627Y6572415D03*
G01*
X4002059Y6318453D03*
G01*
X4006491Y6064491D03*
G01*
X4010926Y5810529D03*
G01*
X4015359Y5556567D03*
G01*
X4019791Y5302608D03*
G01*
X4024223Y5048646D03*
D22*
G01*
X4028654Y4794677D03*
D23*
G01*
X2242515Y6559118D03*
G01*
X3044596Y6162039D03*
G01*
X3794759Y6148095D03*
M02*
