G04 Layer: BoardOutlineLayer*
G04 EasyEDA v6.5.51, 2025-10-19 10:48:53*
G04 5e3b94fd083e48a5883d67b6d006c6ac,63b151a7cfd24dbfbc8a16c83e39e105,10*
G04 Gerber Generator version 0.2*
G04 Scale: 100 percent, Rotated: No, Reflected: No *
G04 Dimensions in millimeters *
G04 leading zeros omitted , absolute positions ,4 integer and 5 decimal *
%FSLAX45Y45*%
%MOMM*%

%ADD10C,0.5000*%
%ADD11C,0.0176*%
D10*
X4254500Y7835900D02*
G01*
X4127245Y7894828D01*
X3949700Y7950200D01*
X3771900Y7988300D01*
X3556000Y7988300D01*
X3340100Y7950200D01*
X3302000Y7772400D01*
X3225800Y7950200D01*
X3098800Y7912100D01*
X3009900Y7823200D01*
X3187700Y6870700D01*
X2590800Y6997700D02*
G01*
X3187700Y6870700D01*
X4000500Y6858000D02*
G01*
X4267200Y7835900D01*
X4000500Y6858000D02*
G01*
X4660900Y6997700D01*
X2603500Y6997700D02*
G01*
X2108200Y6896100D01*
X1778000Y6959600D01*
X1066800Y6680200D01*
X1162050Y3784600D02*
G01*
X1625600Y3302000D01*
X1625600Y3302000D02*
G01*
X2362200Y3060700D01*
X3238500Y2946400D01*
X4102100Y2933700D01*
X4851400Y3035300D01*
X5689600Y3441700D01*
X6291237Y6592930D02*
G01*
X6438900Y6121400D01*
X6477000Y5778500D01*
X6477000Y5435600D01*
X6451600Y4978400D01*
X6388100Y4546600D01*
X6261100Y4038600D01*
X6057900Y3759200D01*
X1066800Y6680200D02*
G01*
X889000Y6438900D01*
X800100Y6223000D01*
X762000Y5740400D01*
X751024Y5218353D01*
X749300Y5232400D02*
G01*
X838200Y4508500D01*
X1155700Y3784600D01*
X5689600Y3441700D02*
G01*
X6070600Y3771900D01*
X5270500Y6896100D02*
G01*
X5791200Y6959600D01*
X6210300Y6718300D01*
X6291237Y6592930D01*
X5270500Y6896100D02*
G01*
X4660900Y6997700D01*

%LPD*%
M02*
