G04 Layer: TopLayer*
G04 EasyEDA v6.5.51, 2025-10-19 10:48:53*
G04 5e3b94fd083e48a5883d67b6d006c6ac,63b151a7cfd24dbfbc8a16c83e39e105,10*
G04 Gerber Generator version 0.2*
G04 Scale: 100 percent, Rotated: No, Reflected: No *
G04 Dimensions in millimeters *
G04 leading zeros omitted , absolute positions ,4 integer and 5 decimal *
%FSLAX45Y45*%
%MOMM*%

%AMMACRO1*21,1,$1,$2,0,0,$3*%
%ADD10C,0.2540*%
%ADD11C,1.3000*%
%ADD12C,1.4000*%
%ADD13R,1.7000X1.7000*%
%ADD14C,1.5240*%
%ADD15MACRO1,1.7X1.5748X-42.9996*%
%ADD16C,1.7000*%
%ADD17C,0.0167*%
%ADD18C,1.8796*%
%ADD19MACRO1,1.5X1.5001X-88.9987*%
%ADD20C,1.5000*%
%ADD21C,1.6000*%
%ADD22MACRO1,1.6X1.6X-178.9994*%
%ADD23C,0.6096*%

%LPD*%
D10*
X1397000Y5685536D02*
G01*
X1294384Y5788152D01*
X1294384Y6246621D01*
X1784857Y6737095D01*
X3144774Y6737095D01*
X3722624Y7581900D01*
X4024223Y5048656D02*
G01*
X3304514Y4328947D01*
X2864713Y4328947D01*
X2553944Y4018178D01*
X2330754Y5930722D02*
G01*
X3660216Y5930722D01*
X4002049Y6272555D01*
X4002049Y6318453D01*
X4010939Y5810529D02*
G01*
X4716145Y5810529D01*
X4823790Y5918174D01*
X3794759Y6148095D02*
G01*
X3780815Y6162039D01*
X3044596Y6162039D01*
X3235756Y6559118D02*
G01*
X2242515Y6559118D01*
X6225159Y5797880D02*
G01*
X5699506Y5797880D01*
X5458840Y6038545D01*
X5454395Y6292494D02*
G01*
X4110151Y6292494D01*
X4110151Y6292494D02*
G01*
X4110151Y6459905D01*
X3997629Y6572427D01*
X6232499Y4981346D02*
G01*
X6232499Y5161178D01*
X5484342Y5909335D01*
X5428665Y5909335D01*
X5350459Y5987542D01*
X5350459Y6188557D01*
X5454395Y6292494D01*
X3253486Y5543270D02*
G01*
X3330397Y5543270D01*
X3996766Y6209639D01*
X4052697Y6209639D01*
X4110151Y6267094D01*
X4110151Y6292494D01*
X1798472Y4549698D02*
G01*
X1997075Y4549698D01*
X2295448Y4251325D01*
X4828209Y5664225D02*
G01*
X4811090Y5681345D01*
X3586835Y5681345D01*
X3326104Y5420613D01*
X2573909Y5420613D01*
X2317445Y5677077D01*
X4284218Y3942232D02*
G01*
X4455642Y4113656D01*
X4844922Y4113656D01*
X5322824Y4381144D02*
G01*
X5322824Y4404918D01*
X6061100Y4238879D02*
G01*
X5465089Y4238879D01*
X5322824Y4381144D01*
X5322824Y4381144D02*
G01*
X5112410Y4381144D01*
X4844922Y4113656D01*
X3403600Y3962400D02*
G01*
X3672408Y3962400D01*
X3696182Y3938625D01*
X3696182Y3938625D02*
G01*
X3837000Y4079443D01*
X4147007Y4079443D01*
X4284218Y3942232D01*
X2295448Y4251325D02*
G01*
X2295448Y4110329D01*
X2506700Y3899077D01*
X2721711Y3899077D01*
X2805455Y3982821D01*
X2805455Y3982821D02*
G01*
X2898927Y4076293D01*
X3289706Y4076293D01*
X3403600Y3962400D01*
X5467705Y5530595D02*
G01*
X5112232Y5175122D01*
X3660495Y5175122D01*
X3266770Y4781397D01*
X1449552Y4781397D02*
G01*
X1449552Y3865473D01*
X1494612Y3820413D01*
X3266770Y4781397D02*
G01*
X1449552Y4781397D01*
X1449552Y4781397D02*
G01*
X1198422Y4781397D01*
X974623Y5005196D01*
X6220713Y6051829D02*
G01*
X5587238Y6685305D01*
X1888693Y6685305D01*
X1397000Y6193612D01*
X3257905Y5289321D02*
G01*
X3406140Y5437555D01*
X5116271Y5437555D01*
X5463286Y5784570D01*
D11*
G01*
X3722700Y7581900D03*
G01*
X3922699Y7581900D03*
D12*
G01*
X5399539Y3622296D03*
G01*
X5801860Y3845303D03*
D13*
G01*
X3340100Y7315200D03*
D14*
G01*
X5086484Y4192148D03*
G01*
X4844915Y4113651D03*
G01*
X2553936Y4018175D03*
G01*
X2805463Y3982824D03*
G01*
X3949214Y3960769D03*
G01*
X3696185Y3938630D03*
G01*
X2330747Y5930724D03*
G01*
X2317452Y5677075D03*
G01*
X5522978Y4561288D03*
G01*
X5322821Y4404911D03*
G01*
X4529571Y4007970D03*
G01*
X4284228Y3942229D03*
G01*
X4823782Y5918179D03*
G01*
X4828217Y5664220D03*
G01*
X2047956Y4308469D03*
G01*
X2295443Y4251330D03*
G01*
X1554319Y4619706D03*
G01*
X1798480Y4549693D03*
G01*
X3149600Y3962400D03*
G01*
X3403600Y3962400D03*
D15*
G01*
X1494618Y3820412D03*
D16*
G01*
X1680382Y3647186D03*
D18*
G01*
X6061092Y4238866D03*
G01*
X6232507Y4981333D03*
G01*
X974628Y5005184D03*
G01*
X1158971Y4265815D03*
D12*
G01*
X1397000Y6193612D03*
G01*
X1397002Y5685609D03*
G01*
X1396997Y5939612D03*
D19*
G01*
X5454406Y6292490D03*
D20*
G01*
X5458843Y6038532D03*
G01*
X5463275Y5784568D03*
G01*
X5467708Y5530603D03*
G01*
X6216291Y6305796D03*
G01*
X6220724Y6051831D03*
G01*
X6225156Y5797867D03*
G01*
X6229596Y5543908D03*
D21*
G01*
X3266772Y4781384D03*
G01*
X3262340Y5035346D03*
G01*
X3257908Y5289308D03*
G01*
X3253473Y5543270D03*
G01*
X3249040Y5797232D03*
G01*
X3244608Y6051191D03*
G01*
X3240176Y6305153D03*
G01*
X3235744Y6559115D03*
G01*
X3997627Y6572415D03*
G01*
X4002059Y6318453D03*
G01*
X4006491Y6064491D03*
G01*
X4010926Y5810529D03*
G01*
X4015359Y5556567D03*
G01*
X4019791Y5302608D03*
G01*
X4024223Y5048646D03*
D22*
G01*
X4028654Y4794677D03*
D23*
G01*
X2242515Y6559118D03*
G01*
X3044596Y6162039D03*
G01*
X3794759Y6148095D03*
M02*
